<?xml version="1.0" encoding="utf-8"?>
<svg xmlns="http://www.w3.org/2000/svg" style="margin: auto; background: rgba(241, 242, 243, 0); display: block; shape-rendering: auto;" width="206" height="84" preserveAspectRatio="xMidYMid">
<style type="text/css">
  text {
    text-anchor: middle; font-size: 80px; opacity: 0;
  }
</style>
<g style="transform-origin:103px 42px;transform:scale(1)">
<g transform="translate(103,42)">
  <g transform="translate(0,0)"><g class="path" style="transform: scale(0.91); transform-origin: -18.7192px -9.25265px; animation: 1.05263s linear -0.666947s infinite normal forwards running breath-b126a17f-7e33-4b84-9676-313cb3bc62c6;"><path d="M32.24-28.16L32.24-28.16L32.24-28.16Q31.60-24.96 30.08-21.76L30.08-21.76L30.08-21.76Q28.56-18.56 27.20-15.76L27.20-15.76L27.20-15.76Q27.12-15.60 26.84-15.20L26.84-15.20L26.84-15.20Q26.56-14.80 26.40-14.80L26.40-14.80L26.40-14.80Q26.16-14.88 26.16-15.32L26.16-15.32L26.16-15.32Q26.16-15.76 26.16-15.92L26.16-15.92L26.16-15.92Q26.24-16.64 26.44-17.64L26.44-17.64L26.44-17.64Q26.64-18.64 26.80-19.72L26.80-19.72L26.80-19.72Q26.96-20.80 27.16-21.80L27.16-21.80L27.16-21.80Q27.36-22.80 27.60-23.60L27.60-23.60L27.60-23.60Q28.32-26.32 28.80-28.28L28.80-28.28L28.80-28.28Q29.28-30.24 29.52-31.84L29.52-31.84L29.52-31.84Q29.76-33.44 29.80-34.88L29.80-34.88L29.80-34.88Q29.84-36.32 29.60-38L29.60-38L29.60-38Q29.52-38.64 29.68-38.80L29.68-38.80L29.68-38.80Q29.84-38.88 30.08-38.64L30.08-38.64L30.08-38.64Q30.32-38.40 30.48-38.16L30.48-38.16L30.48-38.16Q31.84-36 32.32-33.40L32.32-33.40L32.32-33.40Q32.80-30.80 32.24-28.16" fill="#1d0e0b" stroke="none" stroke-width="none" transform="translate(-48.07000732421875,17.55734892578125)" style="fill: rgb(29, 14, 11);"></path></g><g class="path" style="transform: scale(0.91); transform-origin: -16.45px -1.56265px; animation: 1.05263s linear -0.639158s infinite normal forwards running breath-b126a17f-7e33-4b84-9676-313cb3bc62c6;"><path d="M33.84-34L34.16-33.52L34.16-33.52Q35.20-32 35.20-29.52L35.20-29.52L35.20-29.52Q35.20-27.04 34.72-24.44L34.72-24.44L34.72-24.44Q34.24-21.84 33.52-19.44L33.52-19.44L33.52-19.44Q32.80-17.04 32.48-15.60L32.48-15.60L32.48-15.60Q31.84-12.80 30.72-10L30.72-10L30.72-10Q29.60-7.20 28.80-5.04L28.80-5.04L28.80-5.04Q28.72-4.80 28.56-4.52L28.56-4.52L28.56-4.52Q28.40-4.24 28.24-4.24L28.24-4.24L28.24-4.24Q28.08-4.24 28.08-4.56L28.08-4.56L28.08-4.56Q28.08-4.88 28.08-5.12L28.08-5.12L28.08-5.12Q27.84-9.52 29.04-13.72L29.04-13.72L29.04-13.72Q30.24-17.92 31.60-22.24L31.60-22.24L31.60-22.24Q32.40-24.88 33.12-27.64L33.12-27.64L33.12-27.64Q33.84-30.40 33.76-33.68L33.76-33.68L33.76-33.68Q33.76-34 33.84-34L33.84-34" fill="#1d0e0b" stroke="none" stroke-width="none" transform="translate(-48.07000732421875,17.55734892578125)" style="fill: rgb(119, 64, 35);"></path></g><g class="path" style="transform: scale(0.91); transform-origin: -33.1917px -1.88673px; animation: 1.05263s linear -0.611368s infinite normal forwards running breath-b126a17f-7e33-4b84-9676-313cb3bc62c6;"><path d="M26.64-34.88L26.64-34.88L26.64-34.88Q21.76-32.88 18.36-29.16L18.36-29.16L18.36-29.16Q14.96-25.44 13.12-20.80L13.12-20.80L13.12-20.80Q12.32-18.72 11.92-17.08L11.92-17.08L11.92-17.08Q11.52-15.44 11.28-13.52L11.28-13.52L11.28-13.52Q11.20-13.12 11.52-12.72L11.52-12.72L11.52-12.72Q11.84-12.32 12.16-12.72L12.16-12.72L12.16-12.72Q13.60-14.48 15.84-17.20L15.84-17.20L15.84-17.20Q18.08-19.92 20.32-22.96L20.32-22.96L20.32-22.96Q22.56-26 24.36-29.12L24.36-29.12L24.36-29.12Q26.16-32.24 26.64-34.88zM21.28-7.76L21.28-7.76L21.28-7.76Q20.08-6.08 18.96-4.64L18.96-4.64L18.96-4.64Q17.84-3.20 16.48-2.12L16.48-2.12L16.48-2.12Q15.12-1.04 13.44-0.40L13.44-0.40L13.44-0.40Q11.76 0.24 9.60 0.32L9.60 0.32L9.60 0.32Q6 0.48 4.12-1.52L4.12-1.52L4.12-1.52Q2.24-3.52 1.52-6.40L1.52-6.40L1.52-6.40Q0.80-9.28 1-12.36L1-12.36L1-12.36Q1.20-15.44 1.84-17.44L1.84-17.44L1.84-17.44Q2.72-20.24 3.96-22.76L3.96-22.76L3.96-22.76Q5.20-25.28 6.60-27.32L6.60-27.32L6.60-27.32Q8-29.36 9.48-30.84L9.48-30.84L9.48-30.84Q10.96-32.32 12.40-33.12L12.40-33.12L12.40-33.12Q12.48-33.12 12.76-33.28L12.76-33.28L12.76-33.28Q13.04-33.44 13.04-33.20L13.04-33.20L13.04-33.20Q13.12-33.20 12.96-32.96L12.96-32.96L12.96-32.96Q12.80-32.72 12.64-32.56L12.64-32.56L12.64-32.56Q8.48-28.24 6.04-22.80L6.04-22.80L6.04-22.80Q3.60-17.36 3.28-11.60L3.28-11.60L3.28-11.60Q3.20-10.16 3.40-8.48L3.40-8.48L3.40-8.48Q3.60-6.80 4.20-5.32L4.20-5.32L4.20-5.32Q4.80-3.84 5.92-2.84L5.92-2.84L5.92-2.84Q7.04-1.84 8.96-1.84L8.96-1.84L8.96-1.84Q10.48-1.84 11.76-2.36L11.76-2.36L11.76-2.36Q13.04-2.88 14.16-3.72L14.16-3.72L14.16-3.72Q15.28-4.56 16.20-5.56L16.20-5.56L16.20-5.56Q17.12-6.56 17.84-7.44L17.84-7.44L17.84-7.44Q19.44-9.44 20.80-11.60L20.80-11.60L20.80-11.60Q20.80-13.20 21-14.72L21-14.72L21-14.72Q21.20-16.24 21.60-17.76L21.60-17.76L21.60-17.76Q21.84-18.88 22.04-19.56L22.04-19.56L22.04-19.56Q22.24-20.24 22.44-20.84L22.44-20.84L22.44-20.84Q22.64-21.44 22.84-22.12L22.84-22.12L22.84-22.12Q23.04-22.80 23.44-23.92L23.44-23.92L23.44-23.92Q22.16-21.68 20.92-19.72L20.92-19.72L20.92-19.72Q19.68-17.76 18.28-15.96L18.28-15.96L18.28-15.96Q16.88-14.16 15.40-12.44L15.40-12.44L15.40-12.44Q13.92-10.72 12.16-8.96L12.16-8.96L12.16-8.96Q10.80-7.60 9.92-8.08L9.92-8.08L9.92-8.08Q9.04-8.56 8.88-10.32L8.88-10.32L8.88-10.32Q8.72-13.04 9.16-15.60L9.16-15.60L9.16-15.60Q9.60-18.16 10.72-20.96L10.72-20.96L10.72-20.96Q11.76-23.52 13.32-25.92L13.32-25.92L13.32-25.92Q14.88-28.32 16.92-30.28L16.92-30.28L16.92-30.28Q18.96-32.24 21.44-33.64L21.44-33.64L21.44-33.64Q23.92-35.04 26.72-35.52L26.72-35.52L26.72-35.52Q26.88-36.40 27-37.04L27-37.04L27-37.04Q27.12-37.68 27.20-38.32L27.20-38.32L27.20-38.32Q27.36-39.20 27.36-39.20L27.36-39.20L27.36-39.20Q27.52-39.28 27.72-39.04L27.72-39.04L27.72-39.04Q27.92-38.80 28.08-38.40L28.08-38.40L28.08-38.40Q29.04-35.76 28.72-33.12L28.72-33.12L28.72-33.12Q28.40-30.48 27.56-27.76L27.56-27.76L27.56-27.76Q26.72-25.04 25.60-22.20L25.60-22.20L25.60-22.20Q24.48-19.36 23.76-16.48L23.76-16.48L23.76-16.48Q22.80-12.40 23.24-8.04L23.24-8.04L23.24-8.04Q23.68-3.68 26.64-0.16L26.64-0.16L26.64-0.16Q26.88 0.16 26.88 0.16L26.88 0.16L26.88 0.16Q26.80 0.24 26.40 0L26.40 0L26.40 0Q24.08-1.44 22.92-3.48L22.92-3.48L22.92-3.48Q21.76-5.52 21.28-7.76" fill="#1d0e0b" stroke="none" stroke-width="none" transform="translate(-48.07000732421875,17.55734892578125)" style="fill: rgb(216, 140, 81);"></path></g><g class="path" style="transform: scale(0.91); transform-origin: -33.6833px -2.33408px; animation: 1.05263s linear -0.583579s infinite normal forwards running breath-b126a17f-7e33-4b84-9676-313cb3bc62c6;"><path d="M24.08-36.08L24.08-36.08L24.08-36.08Q24.24-35.92 24.04-35.84L24.04-35.84L24.04-35.84Q23.84-35.76 23.20-35.60L23.20-35.60L23.20-35.60Q22.16-35.28 20.68-34.40L20.68-34.40L20.68-34.40Q19.20-33.52 17.56-32.16L17.56-32.16L17.56-32.16Q15.92-30.80 14.32-29L14.32-29L14.32-29Q12.72-27.20 11.52-25.12L11.52-25.12L11.52-25.12Q10.32-22.96 9.48-20.88L9.48-20.88L9.48-20.88Q8.64-18.80 8.12-17.08L8.12-17.08L8.12-17.08Q7.60-15.36 7.36-14.12L7.36-14.12L7.36-14.12Q7.12-12.88 7.12-12.40L7.12-12.40L7.12-12.40Q7.12-11.20 7.12-9.88L7.12-9.88L7.12-9.88Q7.12-8.56 7.44-7.52L7.44-7.52L7.44-7.52Q7.76-6.48 8.56-5.92L8.56-5.92L8.56-5.92Q9.36-5.36 10.96-5.60L10.96-5.60L10.96-5.60Q11.04-5.60 11.36-5.72L11.36-5.72L11.36-5.72Q11.68-5.84 12-5.96L12-5.96L12-5.96Q12.32-6.08 12.60-6.16L12.60-6.16L12.60-6.16Q12.88-6.24 12.96-6.24L12.96-6.24L12.96-6.24Q13.04-6.08 12.84-5.84L12.84-5.84L12.84-5.84Q12.64-5.60 12.32-5.32L12.32-5.32L12.32-5.32Q12-5.04 11.72-4.80L11.72-4.80L11.72-4.80Q11.44-4.56 11.36-4.48L11.36-4.48L11.36-4.48Q9.36-3.28 8-3.76L8-3.76L8-3.76Q6.64-4.24 5.88-5.56L5.88-5.56L5.88-5.56Q5.12-6.88 4.84-8.68L4.84-8.68L4.84-8.68Q4.56-10.48 4.64-11.92L4.64-11.92L4.64-11.92Q4.80-14.72 5.52-17.48L5.52-17.48L5.52-17.48Q6.24-20.24 7.36-23.04L7.36-23.04L7.36-23.04Q8.24-25.20 10-27.48L10-27.48L10-27.48Q11.76-29.76 13.96-31.68L13.96-31.68L13.96-31.68Q16.16-33.60 18.56-34.84L18.56-34.84L18.56-34.84Q20.96-36.08 23.20-36.16L23.20-36.16L23.20-36.16Q24-36.16 24.08-36.08" fill="#1d0e0b" stroke="none" stroke-width="none" transform="translate(-48.07000732421875,17.55734892578125)" style="fill: rgb(243, 231, 201);"></path></g><g class="path" style="transform: scale(0.91); transform-origin: -21.0967px 13.0373px; animation: 1.05263s linear -0.555789s infinite normal forwards running breath-b126a17f-7e33-4b84-9676-313cb3bc62c6;"><path d="M28.80-0.16L28.80-0.16L28.80-0.16Q28.96 0.08 28.88 0.16L28.88 0.16L28.88 0.16Q28.64 0.16 28.24 0L28.24 0L28.24 0Q28-0.16 26.96-0.96L26.96-0.96L26.96-0.96Q25.92-1.76 25.44-3.52L25.44-3.52L25.44-3.52Q25.28-4.16 25.16-5.16L25.16-5.16L25.16-5.16Q25.04-6.16 25.04-7.04L25.04-7.04L25.04-7.04Q25.04-7.92 25.16-8.56L25.16-8.56L25.16-8.56Q25.28-9.20 25.52-9.20L25.52-9.20L25.52-9.20Q25.76-9.20 26.04-8.24L26.04-8.24L26.04-8.24Q26.32-7.28 26.40-7.04L26.40-7.04L26.40-7.04Q26.64-5.92 26.84-5.08L26.84-5.08L26.84-5.08Q27.04-4.24 27.28-3.52L27.28-3.52L27.28-3.52Q27.60-2.64 28.12-1.52L28.12-1.52L28.12-1.52Q28.64-0.40 28.80-0.16" fill="#1d0e0b" stroke="none" stroke-width="none" transform="translate(-48.07000732421875,17.55734892578125)" style="fill: rgb(255, 249, 245);"></path></g><g class="path" style="transform: scale(0.91); transform-origin: 16.3208px -9.25265px; animation: 1.05263s linear -0.528s infinite normal forwards running breath-b126a17f-7e33-4b84-9676-313cb3bc62c6;"><path d="M67.28-28.16L67.28-28.16L67.28-28.16Q66.64-24.96 65.12-21.76L65.12-21.76L65.12-21.76Q63.60-18.56 62.24-15.76L62.24-15.76L62.24-15.76Q62.16-15.60 61.88-15.20L61.88-15.20L61.88-15.20Q61.60-14.80 61.44-14.80L61.44-14.80L61.44-14.80Q61.20-14.88 61.20-15.32L61.20-15.32L61.20-15.32Q61.20-15.76 61.20-15.92L61.20-15.92L61.20-15.92Q61.28-16.64 61.48-17.64L61.48-17.64L61.48-17.64Q61.68-18.64 61.84-19.72L61.84-19.72L61.84-19.72Q62-20.80 62.20-21.80L62.20-21.80L62.20-21.80Q62.40-22.80 62.64-23.60L62.64-23.60L62.64-23.60Q63.36-26.32 63.84-28.28L63.84-28.28L63.84-28.28Q64.32-30.24 64.56-31.84L64.56-31.84L64.56-31.84Q64.80-33.44 64.84-34.88L64.84-34.88L64.84-34.88Q64.88-36.32 64.64-38L64.64-38L64.64-38Q64.56-38.64 64.72-38.80L64.72-38.80L64.72-38.80Q64.88-38.88 65.12-38.64L65.12-38.64L65.12-38.64Q65.36-38.40 65.52-38.16L65.52-38.16L65.52-38.16Q66.88-36 67.36-33.40L67.36-33.40L67.36-33.40Q67.84-30.80 67.28-28.16" fill="#1d0e0b" stroke="none" stroke-width="none" transform="translate(-48.07000732421875,17.55734892578125)" style="fill: rgb(29, 14, 11);"></path></g><g class="path" style="transform: scale(0.91); transform-origin: 18.59px -1.56265px; animation: 1.05263s linear -0.500211s infinite normal forwards running breath-b126a17f-7e33-4b84-9676-313cb3bc62c6;"><path d="M68.88-34L69.20-33.52L69.20-33.52Q70.24-32 70.24-29.52L70.24-29.52L70.24-29.52Q70.24-27.04 69.76-24.44L69.76-24.44L69.76-24.44Q69.28-21.84 68.56-19.44L68.56-19.44L68.56-19.44Q67.84-17.04 67.52-15.60L67.52-15.60L67.52-15.60Q66.88-12.80 65.76-10L65.76-10L65.76-10Q64.64-7.20 63.84-5.04L63.84-5.04L63.84-5.04Q63.76-4.80 63.60-4.52L63.60-4.52L63.60-4.52Q63.44-4.24 63.28-4.24L63.28-4.24L63.28-4.24Q63.12-4.24 63.12-4.56L63.12-4.56L63.12-4.56Q63.12-4.88 63.12-5.12L63.12-5.12L63.12-5.12Q62.88-9.52 64.08-13.72L64.08-13.72L64.08-13.72Q65.28-17.92 66.64-22.24L66.64-22.24L66.64-22.24Q67.44-24.88 68.16-27.64L68.16-27.64L68.16-27.64Q68.88-30.40 68.80-33.68L68.80-33.68L68.80-33.68Q68.80-34 68.88-34L68.88-34" fill="#1d0e0b" stroke="none" stroke-width="none" transform="translate(-48.07000732421875,17.55734892578125)" style="fill: rgb(119, 64, 35);"></path></g><g class="path" style="transform: scale(0.91); transform-origin: 1.84825px -1.88673px; animation: 1.05263s linear -0.472421s infinite normal forwards running breath-b126a17f-7e33-4b84-9676-313cb3bc62c6;"><path d="M61.68-34.88L61.68-34.88L61.68-34.88Q56.80-32.88 53.40-29.16L53.40-29.16L53.40-29.16Q50-25.44 48.16-20.80L48.16-20.80L48.16-20.80Q47.36-18.72 46.96-17.08L46.96-17.08L46.96-17.08Q46.56-15.44 46.32-13.52L46.32-13.52L46.32-13.52Q46.24-13.12 46.56-12.72L46.56-12.72L46.56-12.72Q46.88-12.32 47.20-12.72L47.20-12.72L47.20-12.72Q48.64-14.48 50.88-17.20L50.88-17.20L50.88-17.20Q53.12-19.92 55.36-22.96L55.36-22.96L55.36-22.96Q57.60-26 59.40-29.12L59.40-29.12L59.40-29.12Q61.20-32.24 61.68-34.88zM56.32-7.76L56.32-7.76L56.32-7.76Q55.12-6.08 54-4.64L54-4.64L54-4.64Q52.88-3.20 51.52-2.12L51.52-2.12L51.52-2.12Q50.16-1.04 48.48-0.40L48.48-0.40L48.48-0.40Q46.80 0.24 44.64 0.32L44.64 0.32L44.64 0.32Q41.04 0.48 39.16-1.52L39.16-1.52L39.16-1.52Q37.28-3.52 36.56-6.40L36.56-6.40L36.56-6.40Q35.84-9.28 36.04-12.36L36.04-12.36L36.04-12.36Q36.24-15.44 36.88-17.44L36.88-17.44L36.88-17.44Q37.76-20.24 39-22.76L39-22.76L39-22.76Q40.24-25.28 41.64-27.32L41.64-27.32L41.64-27.32Q43.04-29.36 44.52-30.84L44.52-30.84L44.52-30.84Q46-32.32 47.44-33.12L47.44-33.12L47.44-33.12Q47.52-33.12 47.80-33.28L47.80-33.28L47.80-33.28Q48.08-33.44 48.08-33.20L48.08-33.20L48.08-33.20Q48.16-33.20 48-32.96L48-32.96L48-32.96Q47.84-32.72 47.68-32.56L47.68-32.56L47.68-32.56Q43.52-28.24 41.08-22.80L41.08-22.80L41.08-22.80Q38.64-17.36 38.32-11.60L38.32-11.60L38.32-11.60Q38.24-10.16 38.44-8.48L38.44-8.48L38.44-8.48Q38.64-6.80 39.24-5.32L39.24-5.32L39.24-5.32Q39.84-3.84 40.96-2.84L40.96-2.84L40.96-2.84Q42.08-1.84 44-1.84L44-1.84L44-1.84Q45.52-1.84 46.80-2.36L46.80-2.36L46.80-2.36Q48.08-2.88 49.20-3.72L49.20-3.72L49.20-3.72Q50.32-4.56 51.24-5.56L51.24-5.56L51.24-5.56Q52.16-6.56 52.88-7.44L52.88-7.44L52.88-7.44Q54.48-9.44 55.84-11.60L55.84-11.60L55.84-11.60Q55.84-13.20 56.04-14.72L56.04-14.72L56.04-14.72Q56.24-16.24 56.64-17.76L56.64-17.76L56.64-17.76Q56.88-18.88 57.08-19.56L57.08-19.56L57.08-19.56Q57.28-20.24 57.48-20.84L57.48-20.84L57.48-20.84Q57.68-21.44 57.88-22.12L57.88-22.12L57.88-22.12Q58.08-22.80 58.48-23.92L58.48-23.92L58.48-23.92Q57.20-21.68 55.96-19.72L55.96-19.72L55.96-19.72Q54.72-17.76 53.32-15.96L53.32-15.96L53.32-15.96Q51.92-14.16 50.44-12.44L50.44-12.44L50.44-12.44Q48.96-10.72 47.20-8.96L47.20-8.96L47.20-8.96Q45.84-7.60 44.96-8.08L44.96-8.08L44.96-8.08Q44.08-8.56 43.92-10.32L43.92-10.32L43.92-10.32Q43.76-13.04 44.20-15.60L44.20-15.60L44.20-15.60Q44.64-18.16 45.76-20.96L45.76-20.96L45.76-20.96Q46.80-23.52 48.36-25.92L48.36-25.92L48.36-25.92Q49.92-28.32 51.96-30.28L51.96-30.28L51.96-30.28Q54-32.24 56.48-33.64L56.48-33.64L56.48-33.64Q58.96-35.04 61.76-35.52L61.76-35.52L61.76-35.52Q61.92-36.40 62.04-37.04L62.04-37.04L62.04-37.04Q62.16-37.68 62.24-38.32L62.24-38.32L62.24-38.32Q62.40-39.20 62.40-39.20L62.40-39.20L62.40-39.20Q62.56-39.28 62.76-39.04L62.76-39.04L62.76-39.04Q62.96-38.80 63.12-38.40L63.12-38.40L63.12-38.40Q64.08-35.76 63.76-33.12L63.76-33.12L63.76-33.12Q63.44-30.48 62.60-27.76L62.60-27.76L62.60-27.76Q61.76-25.04 60.64-22.20L60.64-22.20L60.64-22.20Q59.52-19.36 58.80-16.48L58.80-16.48L58.80-16.48Q57.84-12.40 58.28-8.04L58.28-8.04L58.28-8.04Q58.72-3.68 61.68-0.16L61.68-0.16L61.68-0.16Q61.92 0.16 61.92 0.16L61.92 0.16L61.92 0.16Q61.84 0.24 61.44 0L61.44 0L61.44 0Q59.12-1.44 57.96-3.48L57.96-3.48L57.96-3.48Q56.80-5.52 56.32-7.76" fill="#1d0e0b" stroke="none" stroke-width="none" transform="translate(-48.07000732421875,17.55734892578125)" style="fill: rgb(216, 140, 81);"></path></g><g class="path" style="transform: scale(0.91); transform-origin: 1.35666px -2.33408px; animation: 1.05263s linear -0.444632s infinite normal forwards running breath-b126a17f-7e33-4b84-9676-313cb3bc62c6;"><path d="M59.12-36.08L59.12-36.08L59.12-36.08Q59.28-35.92 59.08-35.84L59.08-35.84L59.08-35.84Q58.88-35.76 58.24-35.60L58.24-35.60L58.24-35.60Q57.20-35.28 55.72-34.40L55.72-34.40L55.72-34.40Q54.24-33.52 52.60-32.16L52.60-32.16L52.60-32.16Q50.96-30.80 49.36-29L49.36-29L49.36-29Q47.76-27.20 46.56-25.12L46.56-25.12L46.56-25.12Q45.36-22.96 44.52-20.88L44.52-20.88L44.52-20.88Q43.68-18.80 43.16-17.08L43.16-17.08L43.16-17.08Q42.64-15.36 42.40-14.12L42.40-14.12L42.40-14.12Q42.16-12.88 42.16-12.40L42.16-12.40L42.16-12.40Q42.16-11.20 42.16-9.88L42.16-9.88L42.16-9.88Q42.16-8.56 42.48-7.52L42.48-7.52L42.48-7.52Q42.80-6.48 43.60-5.92L43.60-5.92L43.60-5.92Q44.40-5.36 46-5.60L46-5.60L46-5.60Q46.08-5.60 46.40-5.72L46.40-5.72L46.40-5.72Q46.72-5.84 47.04-5.96L47.04-5.96L47.04-5.96Q47.36-6.08 47.64-6.16L47.64-6.16L47.64-6.16Q47.92-6.24 48-6.24L48-6.24L48-6.24Q48.08-6.08 47.88-5.84L47.88-5.84L47.88-5.84Q47.68-5.60 47.36-5.32L47.36-5.32L47.36-5.32Q47.04-5.04 46.76-4.80L46.76-4.80L46.76-4.80Q46.48-4.56 46.40-4.48L46.40-4.48L46.40-4.48Q44.40-3.28 43.04-3.76L43.04-3.76L43.04-3.76Q41.68-4.24 40.92-5.56L40.92-5.56L40.92-5.56Q40.16-6.88 39.88-8.68L39.88-8.68L39.88-8.68Q39.60-10.48 39.68-11.92L39.68-11.92L39.68-11.92Q39.84-14.72 40.56-17.48L40.56-17.48L40.56-17.48Q41.28-20.24 42.40-23.04L42.40-23.04L42.40-23.04Q43.28-25.20 45.04-27.48L45.04-27.48L45.04-27.48Q46.80-29.76 49-31.68L49-31.68L49-31.68Q51.20-33.60 53.60-34.84L53.60-34.84L53.60-34.84Q56-36.08 58.24-36.16L58.24-36.16L58.24-36.16Q59.04-36.16 59.12-36.08" fill="#1d0e0b" stroke="none" stroke-width="none" transform="translate(-48.07000732421875,17.55734892578125)" style="fill: rgb(243, 231, 201);"></path></g><g class="path" style="transform: scale(0.91); transform-origin: 13.9433px 13.0373px; animation: 1.05263s linear -0.416842s infinite normal forwards running breath-b126a17f-7e33-4b84-9676-313cb3bc62c6;"><path d="M63.84-0.16L63.84-0.16L63.84-0.16Q64 0.08 63.92 0.16L63.92 0.16L63.92 0.16Q63.68 0.16 63.28 0L63.28 0L63.28 0Q63.04-0.16 62-0.96L62-0.96L62-0.96Q60.96-1.76 60.48-3.52L60.48-3.52L60.48-3.52Q60.32-4.16 60.20-5.16L60.20-5.16L60.20-5.16Q60.08-6.16 60.08-7.04L60.08-7.04L60.08-7.04Q60.08-7.92 60.20-8.56L60.20-8.56L60.20-8.56Q60.32-9.20 60.56-9.20L60.56-9.20L60.56-9.20Q60.80-9.20 61.08-8.24L61.08-8.24L61.08-8.24Q61.36-7.28 61.44-7.04L61.44-7.04L61.44-7.04Q61.68-5.92 61.88-5.08L61.88-5.08L61.88-5.08Q62.08-4.24 62.32-3.52L62.32-3.52L62.32-3.52Q62.64-2.64 63.16-1.52L63.16-1.52L63.16-1.52Q63.68-0.40 63.84-0.16" fill="#1d0e0b" stroke="none" stroke-width="none" transform="translate(-48.07000732421875,17.55734892578125)" style="fill: rgb(255, 249, 245);"></path></g><g class="path" style="transform: scale(0.91); transform-origin: 39.1453px -0.46043px; animation: 1.05263s linear -0.389053s infinite normal forwards running breath-b126a17f-7e33-4b84-9676-313cb3bc62c6;"><path d="M81.92-16.80L81.92-16.80L81.92-16.80Q82.24-18.80 83-20.84L83-20.84L83-20.84Q83.76-22.88 84.80-24.60L84.80-24.60L84.80-24.60Q85.84-26.32 87.12-27.48L87.12-27.48L87.12-27.48Q88.40-28.64 89.84-29.04L89.84-29.04L89.84-29.04Q91.68-29.44 92.60-29.20L92.60-29.20L92.60-29.20Q93.52-28.96 93.68-28.48L93.68-28.48L93.68-28.48Q93.92-27.76 93.68-27.04L93.68-27.04L93.68-27.04Q93.44-26.32 93-25.76L93-25.76L93-25.76Q92.56-25.20 92.04-24.76L92.04-24.76L92.04-24.76Q91.52-24.32 91.20-24.24L91.20-24.24L91.20-24.24Q90.80-24.08 90.92-23.84L90.92-23.84L90.92-23.84Q91.04-23.60 91.68-23.76L91.68-23.76L91.68-23.76Q92.40-23.84 93.12-24.32L93.12-24.32L93.12-24.32Q93.84-24.80 94.44-25.52L94.44-25.52L94.44-25.52Q95.04-26.24 95.36-27.08L95.36-27.08L95.36-27.08Q95.68-27.92 95.60-28.80L95.60-28.80L95.60-28.80Q95.44-29.68 94.76-30.32L94.76-30.32L94.76-30.32Q94.08-30.96 93.12-31.28L93.12-31.28L93.12-31.28Q92.16-31.60 90.96-31.60L90.96-31.60L90.96-31.60Q89.76-31.60 88.72-31.20L88.72-31.20L88.72-31.20Q86.64-30.40 85.08-28.84L85.08-28.84L85.08-28.84Q83.52-27.28 82.36-25.24L82.36-25.24L82.36-25.24Q81.20-23.20 80.48-20.84L80.48-20.84L80.48-20.84Q79.76-18.48 79.28-16.08L79.28-16.08L79.28-16.08Q78.64-13.12 78.88-10.28L78.88-10.28L78.88-10.28Q79.12-7.44 80.72-5.84L80.72-5.84L80.72-5.84Q81.52-5.04 82.80-4.72L82.80-4.72L82.80-4.72Q84.08-4.40 85.52-4.44L85.52-4.44L85.52-4.44Q86.96-4.48 88.44-4.96L88.44-4.96L88.44-4.96Q89.92-5.44 91.20-6.24L91.20-6.24L91.20-6.24Q91.52-6.40 91.72-6.56L91.72-6.56L91.72-6.56Q91.92-6.72 91.76-6.80L91.76-6.80L91.76-6.80Q91.68-6.88 91.12-6.72L91.12-6.72L91.12-6.72Q87.20-5.76 85.04-5.92L85.04-5.92L85.04-5.92Q82.88-6.08 81.96-7.36L81.96-7.36L81.96-7.36Q81.04-8.64 81.16-11L81.16-11L81.16-11Q81.28-13.36 81.92-16.80" fill="#1d0e0b" stroke="none" stroke-width="none" transform="translate(-48.07000732421875,17.55734892578125)" style="fill: rgb(29, 14, 11);"></path></g><g class="path" style="transform: scale(0.91); transform-origin: 37.6423px -1.34673px; animation: 1.05263s linear -0.361263s infinite normal forwards running breath-b126a17f-7e33-4b84-9676-313cb3bc62c6;"><path d="M82.88-0.32L82.88-0.32L82.88-0.32Q80.32-0.48 78-1.96L78-1.96L78-1.96Q75.68-3.44 74.80-5.68L74.80-5.68L74.80-5.68Q73.92-8 73.68-10.12L73.68-10.12L73.68-10.12Q73.44-12.24 73.60-14.24L73.60-14.24L73.60-14.24Q73.92-18.40 75.24-22.60L75.24-22.60L75.24-22.60Q76.56-26.80 79.36-30.16L79.36-30.16L79.36-30.16Q81.12-32.24 82.88-33.64L82.88-33.64L82.88-33.64Q84.64-35.04 87.52-35.84L87.52-35.84L87.52-35.84Q88.96-36.24 90.64-36.32L90.64-36.32L90.64-36.32Q92.32-36.40 93.96-35.96L93.96-35.96L93.96-35.96Q95.60-35.52 97.04-34.48L97.04-34.48L97.04-34.48Q98.48-33.44 99.60-31.68L99.60-31.68L99.60-31.68Q99.84-30.88 100.08-30.88L100.08-30.88L100.08-30.88Q100.32-31.12 100.08-31.76L100.08-31.76L100.08-31.76Q99.60-34.32 97.48-35.84L97.48-35.84L97.48-35.84Q95.36-37.36 92.52-37.76L92.52-37.76L92.52-37.76Q89.68-38.16 86.64-37.48L86.64-37.48L86.64-37.48Q83.60-36.80 81.28-34.88L81.28-34.88L81.28-34.88Q78.16-32.40 76.04-29.16L76.04-29.16L76.04-29.16Q73.92-25.92 72.72-22.32L72.72-22.32L72.72-22.32Q71.52-18.72 71.28-14.88L71.28-14.88L71.28-14.88Q71.04-11.04 71.84-7.36L71.84-7.36L71.84-7.36Q72.32-4.96 73.48-3.48L73.48-3.48L73.48-3.48Q74.64-2 76.16-1.16L76.16-1.16L76.16-1.16Q77.68-0.32 79.44-0.08L79.44-0.08L79.44-0.08Q81.20 0.16 82.96 0.08L82.96 0.08L82.96 0.08Q83.44 0.08 83.56 0L83.56 0L83.56 0Q83.68-0.08 83.68-0.16L83.68-0.16L83.68-0.16Q83.68-0.32 82.88-0.32" fill="#1d0e0b" stroke="none" stroke-width="none" transform="translate(-48.07000732421875,17.55734892578125)" style="fill: rgb(119, 64, 35);"></path></g><g class="path" style="transform: scale(0.91); transform-origin: 39.5082px -8.92265px; animation: 1.05263s linear -0.333474s infinite normal forwards running breath-b126a17f-7e33-4b84-9676-313cb3bc62c6;"><path d="M76.64-19.60L76.64-19.60L76.64-19.60Q76.64-19.52 76.60-19.20L76.60-19.20L76.60-19.20Q76.56-18.88 76.52-18.56L76.52-18.56L76.52-18.56Q76.48-18.24 76.48-17.96L76.48-17.96L76.48-17.96Q76.48-17.68 76.64-17.68L76.64-17.68L76.64-17.68Q76.80-17.68 77.16-18.48L77.16-18.48L77.16-18.48Q77.52-19.28 77.52-19.36L77.52-19.36L77.52-19.36Q79.60-24.16 82.48-27.84L82.48-27.84L82.48-27.84Q82.72-28.08 83.44-28.92L83.44-28.92L83.44-28.92Q84.16-29.76 85.36-30.64L85.36-30.64L85.36-30.64Q86.56-31.52 88.24-32.16L88.24-32.16L88.24-32.16Q89.92-32.80 92-32.56L92-32.56L92-32.56Q94.16-32.32 95.52-30.96L95.52-30.96L95.52-30.96Q96.88-29.60 96.48-27.76L96.48-27.76L96.48-27.76Q96.16-26 95.24-24.80L95.24-24.80L95.24-24.80Q94.32-23.60 93.44-23.20L93.44-23.20L93.44-23.20Q92.80-22.96 93.08-22.88L93.08-22.88L93.08-22.88Q93.36-22.80 93.52-22.80L93.52-22.80L93.52-22.80Q94.48-22.88 95.56-23.56L95.56-23.56L95.56-23.56Q96.64-24.24 97.44-25.32L97.44-25.32L97.44-25.32Q98.24-26.40 98.56-27.76L98.56-27.76L98.56-27.76Q98.88-29.12 98.32-30.72L98.32-30.72L98.32-30.72Q97.68-32.40 96.48-33.40L96.48-33.40L96.48-33.40Q95.28-34.40 93.84-34.84L93.84-34.84L93.84-34.84Q92.40-35.28 90.92-35.28L90.92-35.28L90.92-35.28Q89.44-35.28 88.40-35.04L88.40-35.04L88.40-35.04Q85.36-34.24 83.28-32.72L83.28-32.72L83.28-32.72Q81.20-31.20 79.88-29.16L79.88-29.16L79.88-29.16Q78.56-27.12 77.84-24.68L77.84-24.68L77.84-24.68Q77.12-22.24 76.64-19.60" fill="#1d0e0b" stroke="none" stroke-width="none" transform="translate(-48.07000732421875,17.55734892578125)" style="fill: rgb(216, 140, 81);"></path></g><g class="path" style="transform: scale(0.91); transform-origin: 37.1122px 13.7101px; animation: 1.05263s linear -0.305684s infinite normal forwards running breath-b126a17f-7e33-4b84-9676-313cb3bc62c6;"><path d="M92.80-5.12L92.80-5.12L92.80-5.12Q93.12-5.60 93.08-5.76L93.08-5.76L93.08-5.76Q93.04-5.92 92.88-5.88L92.88-5.88L92.88-5.88Q92.72-5.84 92.44-5.64L92.44-5.64L92.44-5.64Q92.16-5.44 92-5.36L92-5.36L92-5.36Q90.40-4.24 88.44-3.56L88.44-3.56L88.44-3.56Q86.48-2.88 84.08-2.88L84.08-2.88L84.08-2.88Q82.88-2.88 81.24-3.72L81.24-3.72L81.24-3.72Q79.60-4.56 78.72-5.44L78.72-5.44L78.72-5.44Q78.40-5.84 78.04-6.20L78.04-6.20L78.04-6.20Q77.68-6.56 77.44-6.48L77.44-6.48L77.44-6.48Q77.12-6.16 77.44-5.60L77.44-5.60L77.44-5.60Q78.64-2.80 80.48-2L80.48-2L80.48-2Q82.32-1.20 84.40-1.20L84.40-1.20L84.40-1.20Q85.60-1.20 86.84-1.52L86.84-1.52L86.84-1.52Q88.08-1.84 89.24-2.36L89.24-2.36L89.24-2.36Q90.40-2.88 91.32-3.60L91.32-3.60L91.32-3.60Q92.24-4.32 92.80-5.12" fill="#1d0e0b" stroke="none" stroke-width="none" transform="translate(-48.07000732421875,17.55734892578125)" style="fill: rgb(243, 231, 201);"></path></g><g class="path" style="transform: scale(0.91); transform-origin: 59.3528px -7.84265px; animation: 1.05263s linear -0.277895s infinite normal forwards running breath-b126a17f-7e33-4b84-9676-313cb3bc62c6;"><path d="M110.24-26.40L110.24-26.40L110.24-26.40Q110.48-27.44 110.52-28.80L110.52-28.80L110.52-28.80Q110.56-30.16 110.32-31.60L110.32-31.60L110.32-31.60Q110.08-33.04 109.48-34.36L109.48-34.36L109.48-34.36Q108.88-35.68 107.92-36.64L107.92-36.64L107.92-36.64Q107.44-36.96 107.36-36.96L107.36-36.96L107.36-36.96Q107.04-36.96 107.36-36.48L107.36-36.48L107.36-36.48Q107.84-35.44 107.72-33.24L107.72-33.24L107.72-33.24Q107.60-31.04 107.20-28.68L107.20-28.68L107.20-28.68Q106.80-26.32 106.36-24.44L106.36-24.44L106.36-24.44Q105.92-22.56 105.84-22.16L105.84-22.16L105.84-22.16Q105.28-20.72 104.84-18.56L104.84-18.56L104.84-18.56Q104.40-16.40 104.40-15.04L104.40-15.04L104.40-15.04Q104.32-14.88 104.32-14.40L104.32-14.40L104.32-14.40Q104.32-13.92 104.56-13.84L104.56-13.84L104.56-13.84Q104.64-13.84 104.88-14.24L104.88-14.24L104.88-14.24Q105.12-14.64 105.28-14.80L105.28-14.80L105.28-14.80Q106.72-17.36 108.04-20.40L108.04-20.40L108.04-20.40Q109.36-23.44 110.24-26.40" fill="#1d0e0b" stroke="none" stroke-width="none" transform="translate(-48.07000732421875,17.55734892578125)" style="fill: rgb(255, 249, 245);"></path></g><g class="path" style="transform: scale(0.91); transform-origin: 61.64px -0.322652px; animation: 1.05263s linear -0.250105s infinite normal forwards running breath-b126a17f-7e33-4b84-9676-313cb3bc62c6;"><path d="M110.56-14.32L110.56-14.32L110.56-14.32Q110.88-15.76 111.60-18.04L111.60-18.04L111.60-18.04Q112.32-20.32 112.80-22.76L112.80-22.76L112.80-22.76Q113.28-25.20 113.28-27.56L113.28-27.56L113.28-27.56Q113.28-29.92 112.32-31.44L112.32-31.44L112.32-31.44Q112-31.76 111.84-31.76L111.84-31.76L111.84-31.76Q111.68-31.76 111.76-31.44L111.76-31.44L111.76-31.44Q111.76-28.40 111.08-25.80L111.08-25.80L111.08-25.80Q110.40-23.20 109.60-20.72L109.60-20.72L109.60-20.72Q108.24-16.64 107.12-12.76L107.12-12.76L107.12-12.76Q106-8.88 106.16-4.80L106.16-4.80L106.16-4.80Q106.16-4.56 106.20-4.28L106.20-4.28L106.20-4.28Q106.24-4 106.48-4L106.48-4L106.48-4Q106.64-4 106.72-4.16L106.72-4.16L106.72-4.16Q106.80-4.32 106.96-4.64L106.96-4.64L106.96-4.64Q107.76-6.56 108.80-9.16L108.80-9.16L108.80-9.16Q109.84-11.76 110.56-14.32" fill="#1d0e0b" stroke="none" stroke-width="none" transform="translate(-48.07000732421875,17.55734892578125)" style="fill: rgb(29, 14, 11);"></path></g><g class="path" style="transform: scale(0.91); transform-origin: 54.6257px -1.54043px; animation: 1.05263s linear -0.222316s infinite normal forwards running breath-b126a17f-7e33-4b84-9676-313cb3bc62c6;"><path d="M104.88 0L104.88 0L104.88 0Q103.36-1.60 102.56-3.56L102.56-3.56L102.56-3.56Q101.76-5.52 101.44-7.56L101.44-7.56L101.44-7.56Q101.12-9.60 101.28-11.68L101.28-11.68L101.28-11.68Q101.44-13.76 101.92-15.60L101.92-15.60L101.92-15.60Q102.64-18.48 103.76-21.36L103.76-21.36L103.76-21.36Q104.88-24.24 105.68-27.08L105.68-27.08L105.68-27.08Q106.48-29.92 106.60-32.68L106.60-32.68L106.60-32.68Q106.72-35.44 105.44-38.08L105.44-38.08L105.44-38.08Q105.20-38.48 105.12-38.48L105.12-38.48L105.12-38.48Q105.04-38.48 105.04-38.36L105.04-38.36L105.04-38.36Q105.04-38.24 105.12-38.16L105.12-38.16L105.12-38.16Q105.36-35.76 104.80-33.20L104.80-33.20L104.80-33.20Q104.24-30.64 103.36-27.96L103.36-27.96L103.36-27.96Q102.48-25.28 101.40-22.44L101.40-22.44L101.40-22.44Q100.32-19.60 99.60-16.64L99.60-16.64L99.60-16.64Q99.04-14.48 98.84-12.24L98.84-12.24L98.84-12.24Q98.64-10 99.12-7.80L99.12-7.80L99.12-7.80Q99.60-5.60 100.88-3.60L100.88-3.60L100.88-3.60Q102.16-1.60 104.56 0.08L104.56 0.08L104.56 0.08Q104.72 0.24 104.96 0.28L104.96 0.28L104.96 0.28Q105.20 0.32 104.88 0" fill="#1d0e0b" stroke="none" stroke-width="none" transform="translate(-48.07000732421875,17.55734892578125)" style="fill: rgb(119, 64, 35);"></path></g><g class="path" style="transform: scale(0.91); transform-origin: 57.2367px 13.3973px; animation: 1.05263s linear -0.194526s infinite normal forwards running breath-b126a17f-7e33-4b84-9676-313cb3bc62c6;"><path d="M105.52-3.04L105.52-3.04L105.52-3.04Q105.28-3.68 105.00-4.64L105.00-4.64L105.00-4.64Q104.72-5.60 104.56-6.48L104.56-6.48L104.56-6.48Q104.40-6.80 104.16-7.68L104.16-7.68L104.16-7.68Q103.92-8.56 103.76-8.56L103.76-8.56L103.76-8.56Q103.44-8.56 103.32-8L103.32-8L103.32-8Q103.20-7.44 103.20-6.60L103.20-6.60L103.20-6.60Q103.20-5.76 103.32-4.84L103.32-4.84L103.32-4.84Q103.44-3.92 103.68-3.28L103.68-3.28L103.68-3.28Q104.16-1.68 104.84-1.04L104.84-1.04L104.84-1.04Q105.52-0.40 106.64 0L106.64 0L106.64 0Q107.12 0.24 107.36 0.24L107.36 0.24L107.36 0.24Q107.44 0.24 107.40 0.12L107.40 0.12L107.40 0.12Q107.36 0 107.28 0L107.28 0L107.28 0Q106.72-0.64 106.28-1.36L106.28-1.36L106.28-1.36Q105.84-2.08 105.52-3.04" fill="#1d0e0b" stroke="none" stroke-width="none" transform="translate(-48.07000732421875,17.55734892578125)" style="fill: rgb(216, 140, 81);"></path></g><g class="path" style="transform: scale(0.91); transform-origin: 65.21px -32.3627px; animation: 1.05263s linear -0.166737s infinite normal forwards running breath-b126a17f-7e33-4b84-9676-313cb3bc62c6;"><path d="M111.76-44.40L111.76-44.40L111.76-44.40Q111.36-44.40 110.52-44.52L110.52-44.52L110.52-44.52Q109.68-44.64 109.68-45.28L109.68-45.28L109.68-45.28Q109.68-45.52 110.40-45.88L110.40-45.88L110.40-45.88Q111.12-46.24 112-46.92L112-46.92L112-46.92Q112.88-47.60 113.60-48.68L113.60-48.68L113.60-48.68Q114.32-49.76 114.32-51.44L114.32-51.44L114.32-51.44Q114.32-53.52 113.52-54.56L113.52-54.56L113.52-54.56Q113.36-54.80 113.12-55.08L113.12-55.08L113.12-55.08Q112.88-55.36 112.96-55.44L112.96-55.44L112.96-55.44Q113.12-55.44 113.32-55.32L113.32-55.32L113.32-55.32Q113.52-55.20 113.60-55.12L113.60-55.12L113.60-55.12Q115.20-54.24 116.04-52.84L116.04-52.84L116.04-52.84Q116.88-51.44 116.88-50.16L116.88-50.16L116.88-50.16Q116.88-47.60 115.68-46L115.68-46L115.68-46Q114.48-44.40 111.76-44.40" fill="#1d0e0b" stroke="none" stroke-width="none" transform="translate(-48.07000732421875,17.55734892578125)" style="fill: rgb(243, 231, 201);"></path></g><g class="path" style="transform: scale(0.91); transform-origin: 62.17px -34.1916px; animation: 1.05263s linear -0.138947s infinite normal forwards running breath-b126a17f-7e33-4b84-9676-313cb3bc62c6;"><path d="M108.80-47.60L108.80-47.60L108.80-47.60Q107.84-47.20 107.84-48.08L107.84-48.08L107.84-48.08Q107.84-48.72 108.32-49.32L108.32-49.32L108.32-49.32Q108.80-49.92 109.24-50.64L109.24-50.64L109.24-50.64Q109.68-51.36 109.84-52.28L109.84-52.28L109.84-52.28Q110-53.20 109.36-54.56L109.36-54.56L109.36-54.56Q109.20-54.96 108.80-55.44L108.80-55.44L108.80-55.44Q108.40-55.92 108.56-56L108.56-56L108.56-56Q108.72-56.08 109.24-55.88L109.24-55.88L109.24-55.88Q109.76-55.68 109.92-55.60L109.92-55.60L109.92-55.60Q111.28-54.96 111.96-53.68L111.96-53.68L111.96-53.68Q112.64-52.40 112.64-51.44L112.64-51.44L112.64-51.44Q112.64-49.92 111.40-48.92L111.40-48.92L111.40-48.92Q110.16-47.92 108.80-47.60" fill="#1d0e0b" stroke="none" stroke-width="none" transform="translate(-48.07000732421875,17.55734892578125)" style="fill: rgb(255, 249, 245);"></path></g><g class="path" style="transform: scale(0.91); transform-origin: 59.37px -34.4027px; animation: 1.05263s linear -0.111158s infinite normal forwards running breath-b126a17f-7e33-4b84-9676-313cb3bc62c6;"><path d="M106.48-51.92L106.48-51.92L106.48-51.92Q106.48-52.32 106.72-52.84L106.72-52.84L106.72-52.84Q106.96-53.36 107.52-53.36L107.52-53.36L107.52-53.36Q107.92-53.36 108.16-52.84L108.16-52.84L108.16-52.84Q108.40-52.32 108.40-51.92L108.40-51.92L108.40-51.92Q108.40-51.60 108.16-51.08L108.16-51.08L108.16-51.08Q107.92-50.56 107.52-50.56L107.52-50.56L107.52-50.56Q106.96-50.56 106.72-51.04L106.72-51.04L106.72-51.04Q106.48-51.52 106.48-51.92" fill="#1d0e0b" stroke="none" stroke-width="none" transform="translate(-48.07000732421875,17.55734892578125)" style="fill: rgb(29, 14, 11);"></path></g><g class="path" style="transform: scale(0.91); transform-origin: 81.506px -5.97265px; animation: 1.05263s linear -0.0833684s infinite normal forwards running breath-b126a17f-7e33-4b84-9676-313cb3bc62c6;"><path d="M123.44-29.52L123.44-29.52L123.44-29.52Q123.52-30.24 123.92-31.24L123.92-31.24L123.92-31.24Q124.32-32.24 125-33.16L125-33.16L125-33.16Q125.68-34.08 126.64-34.84L126.64-34.84L126.64-34.84Q127.60-35.60 128.80-35.84L128.80-35.84L128.80-35.84Q131.36-36.32 133.04-35.52L133.04-35.52L133.04-35.52Q134.72-34.72 135.60-33.68L135.60-33.68L135.60-33.68Q135.92-33.20 135.84-33.12L135.84-33.12L135.84-33.12Q135.68-32.96 135.28-33.20L135.28-33.20L135.28-33.20Q134.80-33.52 133.72-33.76L133.72-33.76L133.72-33.76Q132.64-34 131.40-33.88L131.40-33.88L131.40-33.88Q130.16-33.76 129-33.12L129-33.12L129-33.12Q127.84-32.48 127.12-31.04L127.12-31.04L127.12-31.04Q126.48-29.68 126.24-28.24L126.24-28.24L126.24-28.24Q126-26.80 125.96-25.56L125.96-25.56L125.96-25.56Q125.92-24.32 126-23.44L126-23.44L126-23.44Q126.08-22.56 126.08-22.24L126.08-22.24L126.08-22.24Q126.24-21.36 126.36-20.04L126.36-20.04L126.36-20.04Q126.48-18.72 126.48-17.36L126.48-17.36L126.48-17.36Q126.48-16 126.40-14.68L126.40-14.68L126.40-14.68Q126.32-13.36 126.08-12.40L126.08-12.40L126.08-12.40Q126-12.16 125.88-11.60L125.88-11.60L125.88-11.60Q125.76-11.04 125.60-11.04L125.60-11.04L125.60-11.04Q125.20-11.04 125.20-11.60L125.20-11.60L125.20-11.60Q125.20-12.16 125.20-12.40L125.20-12.40L125.20-12.40Q125.04-14.40 124.64-16.44L124.64-16.44L124.64-16.44Q124.24-18.48 123.88-20.64L123.88-20.64L123.88-20.64Q123.52-22.80 123.36-25L123.36-25L123.36-25Q123.20-27.20 123.44-29.52" fill="#1d0e0b" stroke="none" stroke-width="none" transform="translate(-48.07000732421875,17.55734892578125)" style="fill: rgb(119, 64, 35);"></path></g><g class="path" style="transform: scale(0.91); transform-origin: 74.85px -3.76541px; animation: 1.05263s linear -0.0555789s infinite normal forwards running breath-b126a17f-7e33-4b84-9676-313cb3bc62c6;"><path d="M120.64-13.68L120.64-13.68L120.64-13.68Q120.72-15.28 120.36-18.20L120.36-18.20L120.36-18.20Q120-21.12 120.08-24.96L120.08-24.96L120.08-24.96Q120.16-26.96 120.48-29.08L120.48-29.08L120.48-29.08Q120.80-31.20 122-33.28L122-33.28L122-33.28Q123.28-35.52 125.24-36.60L125.24-36.60L125.24-36.60Q127.20-37.68 128.64-37.60L128.64-37.60L128.64-37.60Q128.88-37.60 129.12-37.60L129.12-37.60L129.12-37.60Q129.36-37.60 129.36-37.52L129.36-37.52L129.36-37.52Q129.36-37.36 129.28-37.40L129.28-37.40L129.28-37.40Q129.20-37.44 128.72-37.28L128.72-37.28L128.72-37.28Q127.28-36.88 126.16-35.96L126.16-35.96L126.16-35.96Q125.04-35.04 124.24-33.84L124.24-33.84L124.24-33.84Q123.44-32.64 122.96-31.36L122.96-31.36L122.96-31.36Q122.48-30.08 122.40-29.04L122.40-29.04L122.40-29.04Q121.92-24.64 122.48-21.36L122.48-21.36L122.48-21.36Q122.88-18.72 123.12-15.88L123.12-15.88L123.12-15.88Q123.36-13.04 122.92-10.68L122.92-10.68L122.92-10.68Q122.48-8.32 121.24-6.76L121.24-6.76L121.24-6.76Q120-5.20 117.44-5.04L117.44-5.04L117.44-5.04Q117.20-5.04 116.84-5.08L116.84-5.08L116.84-5.08Q116.48-5.12 116.48-5.28L116.48-5.28L116.48-5.28Q116.48-5.44 117.20-5.84L117.20-5.84L117.20-5.84Q119.28-6.80 119.92-8.64L119.92-8.64L119.92-8.64Q120.56-10.48 120.64-13.68" fill="#1d0e0b" stroke="none" stroke-width="none" transform="translate(-48.07000732421875,17.55734892578125)" style="fill: rgb(216, 140, 81);"></path></g><g class="path" style="transform: scale(0.91); transform-origin: 76.218px 1.20213px; animation: 1.05263s linear -0.0277895s infinite normal forwards running breath-b126a17f-7e33-4b84-9676-313cb3bc62c6;"><path d="M112.16-4.24L112.16-4.24L112.16-4.24Q113.28-2.48 115.72-1.64L115.72-1.64L115.72-1.64Q118.16-0.80 121.52-1.76L121.52-1.76L121.52-1.76Q123.20-2.24 124.48-3.44L124.48-3.44L124.48-3.44Q125.76-4.64 126.60-6.12L126.60-6.12L126.60-6.12Q127.44-7.60 127.88-9.20L127.88-9.20L127.88-9.20Q128.32-10.80 128.40-12.16L128.40-12.16L128.40-12.16Q128.48-14.40 128.28-16.56L128.28-16.56L128.28-16.56Q128.08-18.72 127.80-20.76L127.80-20.76L127.80-20.76Q127.52-22.80 127.32-24.72L127.32-24.72L127.32-24.72Q127.12-26.64 127.28-28.48L127.28-28.48L127.28-28.48Q127.44-30.48 128.40-31.52L128.40-31.52L128.40-31.52Q129.36-32.56 130.76-32.84L130.76-32.84L130.76-32.84Q132.16-33.12 133.68-32.64L133.68-32.64L133.68-32.64Q135.20-32.16 136.48-31.12L136.48-31.12L136.48-31.12Q136.80-30.96 136.72-30.72L136.72-30.72L136.72-30.72Q136.72-30.56 136.56-30.64L136.56-30.64L136.56-30.64Q136.40-30.72 136.24-30.80L136.24-30.80L136.24-30.80Q133.28-31.76 131.64-31.36L131.64-31.36L131.64-31.36Q130-30.96 129.84-28.48L129.84-28.48L129.84-28.48Q129.68-25.60 130.28-21.72L130.28-21.72L130.28-21.72Q130.88-17.84 130.72-13.12L130.72-13.12L130.72-13.12Q130.80-11.52 130.36-9.44L130.36-9.44L130.36-9.44Q129.92-7.36 128.92-5.40L128.92-5.40L128.92-5.40Q127.92-3.44 126.28-1.92L126.28-1.92L126.28-1.92Q124.64-0.40 122.40 0L122.40 0L122.40 0Q118.16 0.64 115.64-0.48L115.64-0.48L115.64-0.48Q113.12-1.60 112-3.92L112-3.92L112-3.92Q111.84-4.40 111.84-4.48L111.84-4.48L111.92-4.48L111.92-4.48Q111.92-4.48 112.16-4.24" fill="#1d0e0b" stroke="none" stroke-width="none" transform="translate(-48.07000732421875,17.55734892578125)" style="fill: rgb(243, 231, 201);"></path></g><g class="path" style="transform: scale(0.91); transform-origin: 69.0267px 13.0937px; animation: 1.05263s linear 0s infinite normal forwards running breath-b126a17f-7e33-4b84-9676-313cb3bc62c6;"><path d="M115.68-4.24L115.68-4.24L115.68-4.24Q117.20-3.84 119.36-3.92L119.36-3.92L119.36-3.92Q120.08-4 121.12-4.32L121.12-4.32L121.12-4.32Q122.16-4.64 122.24-4.48L122.24-4.48L122.24-4.48Q122.48-4.16 121.76-3.68L121.76-3.68L121.76-3.68Q121.04-3.20 119.92-2.84L119.92-2.84L119.92-2.84Q118.80-2.48 117.60-2.36L117.60-2.36L117.60-2.36Q116.40-2.24 115.60-2.56L115.60-2.56L115.60-2.56Q114.08-3.20 113.40-3.96L113.40-3.96L113.40-3.96Q112.72-4.72 112.16-5.84L112.16-5.84L112-6.16L112-6.16Q111.84-6.48 111.92-6.56L111.92-6.56L111.92-6.56Q112-6.64 112.16-6.56L112.16-6.56L112.16-6.56Q112.24-6.48 112.24-6.40L112.24-6.40L112.24-6.40Q113.20-5.52 113.88-5.08L113.88-5.08L113.88-5.08Q114.56-4.64 115.68-4.24" fill="#1d0e0b" stroke="none" stroke-width="none" transform="translate(-48.07000732421875,17.55734892578125)" style="fill: rgb(255, 249, 245);"></path></g></g>
</g>
</g>
<style id="breath-b126a17f-7e33-4b84-9676-313cb3bc62c6" data-anikit="">@keyframes breath-b126a17f-7e33-4b84-9676-313cb3bc62c6
{
  0% {
    animation-timing-function: cubic-bezier(0.9647,0.2413,-0.0705,0.7911);
    transform: scale(0.9099999999999999);
  }
  51% {
    animation-timing-function: cubic-bezier(0.9226,0.2631,-0.0308,0.7628);
    transform: scale(1.02994);
  }
  100% {
    transform: scale(0.9099999999999999);
  }
}</style></svg>